<svg xmlns="http://www.w3.org/2000/svg" width="768" height="768" style="shape-rendering:geometricPrecision;text-rendering:geometricPrecision;image-rendering:optimizeQuality;fill-rule:evenodd;clip-rule:evenodd"><path style="opacity:1" d="M-.5-.5h768v768H-.5V-.5z"/><path style="opacity:1" fill="#ad995c" d="M350.5 23.5c-4.4 1.604-9.066 2.27-14 2 4.419-1.471 9.086-2.138 14-2z"/><path style="opacity:1" fill="#f4e48a" d="M389.5 22.5c7.834.97 15.834 1.803 24 2.5 4.37 3.582 9.37 5.749 15 6.5a23.602 23.602 0 0 1 3.5 3l1-1c2.711 1.528 5.544 2.361 8.5 2.5l2 3-7 1c1.132 2.21 2.632 2.71 4.5 1.5 5.159 1.306 5.493 2.973 1 5-4.079-.436-7.246-1.436-9.5-3a80.315 80.315 0 0 1-17 0 730.038 730.038 0 0 1-22-1 400.606 400.606 0 0 0-40-1 958.721 958.721 0 0 1 44-1.5l1-1a14.984 14.984 0 0 0-3-3.5c1.333-1 1.333-2 0-3a90.802 90.802 0 0 1-7-3.5c1.574-.336 2.908-1.17 4-2.5a10.255 10.255 0 0 0-4-1.5 198.87 198.87 0 0 0-42 1.5 55.454 55.454 0 0 0-7 5.5c1.261 3.019 2.595 2.852 4-.5.874 3.157-.293 5.49-3.5 7a4.934 4.934 0 0 0-.5 3c-9.184 1.253-9.184 1.92 0 2l-9 2-10 1c-3.389.132-6.723.299-10 .5 3.817-1.322 6.817-3.655 9-7-1.801-.317-2.134-.984-1-2a174.92 174.92 0 0 1-3-3.5c2.256-.92 3.256-2.588 3-5a319.26 319.26 0 0 0 17-4h1c4.934.27 9.6-.396 14-2a544.107 544.107 0 0 1 39-1z"/><path style="opacity:1" fill="#faef8e" d="M353.5 41.5c-3.329-.285-6.329.382-9 2h-5c-9.184-.08-9.184-.747 0-2a4.934 4.934 0 0 1 .5-3c3.207-1.51 4.374-3.843 3.5-7-1.405 3.352-2.739 3.519-4 .5a55.454 55.454 0 0 1 7-5.5 198.87 198.87 0 0 1 42-1.5c1.438.219 2.771.719 4 1.5-1.092 1.33-2.426 2.164-4 2.5a90.802 90.802 0 0 0 7 3.5c1.333 1 1.333 2 0 3a14.984 14.984 0 0 1 3 3.5l-1 1a958.721 958.721 0 0 0-44 1.5z"/><path style="opacity:1" fill="#caba74" d="M417.5 24.5c33.358 2.904 65.358 10.904 96 24a18.346 18.346 0 0 1-9-2c-1.349.346-2.683.679-4 1a307.508 307.508 0 0 0-65.5-18c-1.385.014-2.551.348-3.5 1a10.122 10.122 0 0 1-4-1.5l1-1c-3.661-1.593-7.328-2.76-11-3.5z"/><path style="opacity:1" fill="#e4d17f" d="M389.5 22.5c9.555-.342 18.889.325 28 2 3.672.74 7.339 1.907 11 3.5l-1 1a10.122 10.122 0 0 0 4 1.5 313.54 313.54 0 0 0 36 7.5 48.903 48.903 0 0 1 11 4.5c.437 1.574 1.437 2.741 3 3.5 4.663.946 9.33 1.78 14 2.5 1.491 2.105 2.158 4.272 2 6.5-2.558-.347-5.058-1.18-7.5-2.5.379 1.575.212 3.075-.5 4.5 3.875.986 3.875 2.153 0 3.5-4.368-3.493-9.368-4.826-15-4a623.72 623.72 0 0 0-59-13 80.315 80.315 0 0 0 17 0c2.254 1.564 5.421 2.564 9.5 3 4.493-2.027 4.159-3.694-1-5-1.868 1.21-3.368.71-4.5-1.5l7-1-2-3c-2.956-.139-5.789-.972-8.5-2.5l-1 1a23.602 23.602 0 0 0-3.5-3c-5.63-.751-10.63-2.918-15-6.5a636.686 636.686 0 0 1-24-2.5z"/><path style="opacity:1" fill="#e4ce7a" d="M318.5 29.5c.256 2.412-.744 4.08-3 5a174.92 174.92 0 0 0 3 3.5c-1.134 1.016-.801 1.683 1 2-2.183 3.345-5.183 5.678-9 7 3.277-.201 6.611-.368 10-.5a350.714 350.714 0 0 1-31 7 188.71 188.71 0 0 0-12 2 22.392 22.392 0 0 0-2.5-8 7.292 7.292 0 0 0-2 3l-1.5-1.5c.88-1.356 1.214-2.856 1-4.5a500.891 500.891 0 0 0 10-5c.411.762.577 1.762.5 3 .833-1.5 2-2.667 3.5-3.5-1.052-1.717-.386-2.717 2-3 3.062-.742 6.062-.575 9 .5a26.598 26.598 0 0 0 2-3.5 74.45 74.45 0 0 0 9.5-1.5 3.942 3.942 0 0 1 2 1 43.992 43.992 0 0 0 7.5-3z"/><path style="opacity:1" fill="#463c27" d="M353.5 41.5c13.51-.329 26.844.004 40 1a659.532 659.532 0 0 0-49 1c2.671-1.618 5.671-2.285 9-2z"/><path style="opacity:1" fill="#393423" d="M339.5 43.5h4c-.111.617-.444 1.117-1 1.5a72.442 72.442 0 0 1-12 .5l9-2z"/><path style="opacity:1" fill="#d4bb6b" d="M335.5 25.5a319.26 319.26 0 0 1-17 4 43.992 43.992 0 0 1-7.5 3 3.942 3.942 0 0 0-2-1 74.45 74.45 0 0 1-9.5 1.5 26.598 26.598 0 0 1-2 3.5c-2.938-1.075-5.938-1.242-9-.5-2.386.283-3.052 1.283-2 3-1.5.833-2.667 2-3.5 3.5.077-1.238-.089-2.238-.5-3a500.891 500.891 0 0 1-10 5c.214 1.644-.12 3.144-1 4.5l1.5 1.5a7.292 7.292 0 0 1 2-3 22.392 22.392 0 0 1 2.5 8 188.71 188.71 0 0 1 12-2 616.996 616.996 0 0 0-62 25c.203-1.544.87-2.878 2-4a3.647 3.647 0 0 0-1-1.5c3.854-1.828 4.52-4.328 2-7.5l7-8.5c1.877-.576 3.711-.41 5.5.5 1.425-2.698 3.425-3.364 6-2-.43-1.627-.596-3.127-.5-4.5.881-.708 1.547-1.542 2-2.5 27.099-11.86 55.433-19.527 85-23z"/><path style="opacity:1" fill="#948142" d="M431.5 30.5c.949-.652 2.115-.986 3.5-1a307.508 307.508 0 0 1 65.5 18 309.603 309.603 0 0 1 47 23c-.667 0-1 .333-1 1-21.419-12.37-44.086-22.037-68-29a48.903 48.903 0 0 0-11-4.5 313.54 313.54 0 0 1-36-7.5z"/><path style="opacity:1" fill="#d4ba6e" d="M478.5 42.5c23.914 6.963 46.581 16.63 68 29 .667 0 1 .333 1 1-.086.996.248 1.83 1 2.5 6.004 2.396 11.004 6.062 15 11-8.063-2.76-16.563-4.927-25.5-6.5a12.988 12.988 0 0 1-5.5 1 445.754 445.754 0 0 0-58-24c5.632-.826 10.632.507 15 4 3.875-1.347 3.875-2.514 0-3.5.712-1.425.879-2.925.5-4.5 2.442 1.32 4.942 2.153 7.5 2.5.158-2.228-.509-4.395-2-6.5-4.67-.72-9.337-1.554-14-2.5-1.563-.759-2.563-1.926-3-3.5z"/><path style="opacity:1" fill="#c7a95b" d="M250.5 48.5c-.453.958-1.119 1.792-2 2.5-.096 1.373.07 2.873.5 4.5-2.575-1.364-4.575-.698-6 2-1.789-.91-3.623-1.076-5.5-.5l-7 8.5c2.52 3.172 1.854 5.672-2 7.5.457.414.791.914 1 1.5-1.13 1.122-1.797 2.456-2 4-11.325 6.663-22.659 13.33-34 20-2.661.659-4.994 1.992-7 4a14.972 14.972 0 0 1-3.5-3c-1.316 2.528-2.483 2.528-3.5 0 3.96-5.604 6.96-11.271 9-17 19.005-14.133 39.672-25.467 62-34z"/><path style="opacity:1" fill="#cdaa58" d="M513.5 48.5c21.2 8.265 41.2 18.598 60 31-.978.311-1.645.978-2 2 3.124 2.114 5.457 4.78 7 8a244.178 244.178 0 0 0-31-19 309.603 309.603 0 0 0-47-23c1.317-.321 2.651-.654 4-1a18.346 18.346 0 0 0 9 2z"/><path style="opacity:1" fill="#756335" d="M546.5 71.5c0-.667.333-1 1-1a244.178 244.178 0 0 1 31 19c17.815 12.471 34.148 26.805 49 43 .131.876-.202 1.543-1 2a727.611 727.611 0 0 1-23-22.5 60.364 60.364 0 0 0-8-5.5 239.325 239.325 0 0 0-48-34c0-.667-.333-1-1-1z"/><path style="opacity:1" fill="#c4a25a" d="M547.5 72.5a239.325 239.325 0 0 1 48 34 4.934 4.934 0 0 0 .5 3c2.127 1.614 3.627 3.614 4.5 6-2.427-1.419-5.094-2.419-8-3-1-2.667-2-2.667-3 0-2.742-2.75-6.076-4.25-10-4.5-4.137-2.151-7.804-4.984-11-8.5a5.576 5.576 0 0 1-3 1 60839.556 60839.556 0 0 0-33-20 12.988 12.988 0 0 0 5.5-1c8.937 1.573 17.437 3.74 25.5 6.5-3.996-4.938-8.996-8.604-15-11-.752-.67-1.086-1.504-1-2.5z"/><path style="opacity:1" fill="#b68c3b" d="M573.5 79.5a299.798 299.798 0 0 1 42 30.5 113.833 113.833 0 0 1 15 14.5c.17 1.322-.163 2.489-1 3.5a40.113 40.113 0 0 1 7 8 4.934 4.934 0 0 0 3 .5c-.219 1.175.114 2.175 1 3 2.294 3.125 5.128 5.791 8.5 8a15.91 15.91 0 0 0 2.5 4.5c-.336 1.03-1.003 1.53-2 1.5a121.645 121.645 0 0 1-17-20 9.108 9.108 0 0 0-5-1c-14.852-16.195-31.185-30.529-49-43-1.543-3.22-3.876-5.886-7-8 .355-1.022 1.022-1.689 2-2z"/><path style="opacity:1" fill="#b69146" d="M188.5 82.5c-2.04 5.729-5.04 11.396-9 17 1.017 2.528 2.184 2.528 3.5 0a14.972 14.972 0 0 0 3.5 3c2.006-2.008 4.339-3.341 7-4a315.835 315.835 0 0 1-24 18c-.996.086-1.829-.248-2.5-1a26.95 26.95 0 0 1-6.5 5.5l1 1c-1.941.304-3.607 1.137-5 2.5l-2-2a140.807 140.807 0 0 0-6.5 6c.657 5.162-1.51 8.162-6.5 9v3c-2.266-.359-4.099.308-5.5 2-4.787-1.864-5.62-4.864-2.5-9a54.912 54.912 0 0 1 7-7 11.456 11.456 0 0 1-1-2.5c1.207-1.3 1.874-2.8 2-4.5 14.225-14.232 29.892-26.566 47-37z"/><path style="opacity:1" fill="#ba9047" d="M600.5 115.5a25.84 25.84 0 0 0 8 4c.774 2.881 2.107 5.548 4 8a164.722 164.722 0 0 1 12 10.5c-2.764 1.544-2.597 2.711.5 3.5.617.949.451 1.782-.5 2.5l2 2c-3.173-1.715-6.507-2.548-10-2.5a774.49 774.49 0 0 1-25-22.5 820.642 820.642 0 0 1-26-20.5 5.576 5.576 0 0 0 3-1c3.196 3.516 6.863 6.349 11 8.5 3.924.25 7.258 1.75 10 4.5 1-2.667 2-2.667 3 0 2.906.581 5.573 1.581 8 3z"/><path style="opacity:1" fill="#a9833d" d="M169.5 116.5a525.56 525.56 0 0 0-54 55l1-10h3v-4a4.934 4.934 0 0 0 3-.5 25.82 25.82 0 0 1 5-7c-2.667-1.333-2.667-2.667 0-4-1.514-1.439-1.847-2.939-1-4.5-1.151-1.231-2.317-1.231-3.5 0a2.428 2.428 0 0 1-.5-2 134.675 134.675 0 0 1 19-20c-.126 1.7-.793 3.2-2 4.5.235.873.569 1.707 1 2.5a54.912 54.912 0 0 0-7 7c-3.12 4.136-2.287 7.136 2.5 9 1.401-1.692 3.234-2.359 5.5-2v-3c4.99-.838 7.157-3.838 6.5-9a140.807 140.807 0 0 1 6.5-6l2 2c1.393-1.363 3.059-2.196 5-2.5l-1-1a26.95 26.95 0 0 0 6.5-5.5c.671.752 1.504 1.086 2.5 1z"/><path style="opacity:1" fill="#af8742" d="M595.5 106.5a60.364 60.364 0 0 1 8 5.5 727.611 727.611 0 0 0 23 22.5c.798-.457 1.131-1.124 1-2a9.108 9.108 0 0 1 5 1 121.645 121.645 0 0 0 17 20l1 4c-2.895-3.723-6.395-7.056-10.5-10-.09 4.298 1.077 8.298 3.5 12a3.647 3.647 0 0 1-1 1.5c5.202 2.223 5.202 4.389 0 6.5-.73-1.434-1.73-2.6-3-3.5l1-1c-1.242-.311-2.242.189-3 1.5-1.507-2.19-3.507-3.524-6-4a178.532 178.532 0 0 0-15-17c3.493-.048 6.827.785 10 2.5l-2-2c.951-.718 1.117-1.551.5-2.5-3.097-.789-3.264-1.956-.5-3.5a164.722 164.722 0 0 0-12-10.5c-1.893-2.452-3.226-5.119-4-8a25.84 25.84 0 0 1-8-4c-.873-2.386-2.373-4.386-4.5-6a4.934 4.934 0 0 1-.5-3z"/><path style="opacity:1" fill="#a17839" d="M650.5 157.5c4.152 2.652 6.985 6.318 8.5 11a147.302 147.302 0 0 1 15.5 17c1.828 5.639 4.661 10.639 8.5 15a30.465 30.465 0 0 1 1.5 9l-10-15c-5.751-11.262-12.918-21.595-21.5-31-.315 1.408.018 2.741 1 4a686.366 686.366 0 0 1 19.5 28 455.044 455.044 0 0 1 22.5 44 101.04 101.04 0 0 1 5.5 17c-2.547-2.759-4.047-6.092-4.5-10-3.711-1.795-5.545-4.795-5.5-9a120.25 120.25 0 0 0-8.5-19c-1.624-3.492-3.958-6.492-7-9a113.215 113.215 0 0 1-6-12l-1 1a32.445 32.445 0 0 1-4-9c-2.624-1.111-4.124-3.111-4.5-6a55.482 55.482 0 0 0-7-5.5c2.839-3.521 2.006-6.021-2.5-7.5a4.934 4.934 0 0 1-.5-3h-5c.913 2.335 2.247 4.501 4 6.5-2.355 1.865-2.522 4.031-.5 6.5 4.012-2.729 4.512-2.063 1.5 2a15.311 15.311 0 0 0 5 4.5c-.805 2.134-.138 3.967 2 5.5 2.127-2.117 2.46-1.451 1 2a25.513 25.513 0 0 0 4 4.5l-2 1c1.702 2.235 2.702 4.735 3 7.5a562.866 562.866 0 0 0-32-47c2.493.476 4.493 1.81 6 4 .758-1.311 1.758-1.811 3-1.5l-1 1c1.27.9 2.27 2.066 3 3.5 5.202-2.111 5.202-4.277 0-6.5a3.647 3.647 0 0 0 1-1.5c-2.423-3.702-3.59-7.702-3.5-12 4.105 2.944 7.605 6.277 10.5 10z"/><path style="opacity:1" fill="#a3772f" d="M122.5 139.5a2.428 2.428 0 0 0 .5 2c1.183-1.231 2.349-1.231 3.5 0-.847 1.561-.514 3.061 1 4.5-2.667 1.333-2.667 2.667 0 4a25.82 25.82 0 0 0-5 7 4.934 4.934 0 0 1-3 .5v4h-3l-1 10a297.048 297.048 0 0 0-30 48h-3c-.099 3.26-1.599 5.593-4.5 7-1.15-.924-2.15-.924-3 0-.617-.949-.45-1.782.5-2.5-.928-.388-1.595-1.055-2-2 2.278-3.495 3.778-7.328 4.5-11.5 1.736-2.907 3.736-5.907 6-9-.013-3.624 1.32-6.624 4-9l1 1c.273-1.829 1.107-3.329 2.5-4.5-.95-.718-1.117-1.551-.5-2.5a60.32 60.32 0 0 1 5.5-7.5c-.556-.383-.89-.883-1-1.5a201.174 201.174 0 0 0 7-13 179.826 179.826 0 0 1 20-25z"/><path style="opacity:1" fill="#6c5836" d="M674.5 194.5c-.667 0-1 .333-1 1a686.366 686.366 0 0 0-19.5-28c-.982-1.259-1.315-2.592-1-4 8.582 9.405 15.749 19.738 21.5 31z"/><path style="opacity:1" fill="#87602b" d="M102.5 164.5a201.174 201.174 0 0 1-7 13 246.219 246.219 0 0 0-10.5 15 40.972 40.972 0 0 0-3.5 8h-3a172.78 172.78 0 0 1 24-36z"/><path style="opacity:1" fill="#a37127" d="M630.5 124.5c36.765 34.782 64.432 75.782 83 123a5.576 5.576 0 0 1-1 3 344.653 344.653 0 0 1 5 8.5 4.933 4.933 0 0 0-1 2.5c1.442 2.528 1.942 5.195 1.5 8a79.664 79.664 0 0 1-7-16l-3-1c-.496-1.535-.33-3.035.5-4.5-1.645-1.032-1.978-2.199-1-3.5a28.931 28.931 0 0 1-1.5-4c-1.156 1.493-1.99 1.326-2.5-.5-4.906-10.372-10.239-19.872-16-28.5a5.576 5.576 0 0 0-3-1v-1a30.465 30.465 0 0 0-1.5-9c-3.839-4.361-6.672-9.361-8.5-15a147.302 147.302 0 0 0-15.5-17c-1.515-4.682-4.348-8.348-8.5-11l-1-4c.997.03 1.664-.47 2-1.5a15.91 15.91 0 0 1-2.5-4.5c-3.372-2.209-6.206-4.875-8.5-8-.886-.825-1.219-1.825-1-3a4.934 4.934 0 0 1-3-.5 40.113 40.113 0 0 0-7-8c.837-1.011 1.17-2.178 1-3.5z"/><path style="opacity:1" fill="#e3cf81" d="M341.5 193.5h34c-2.945 1.726-5.611 3.893-8 6.5 2.914 2.429 3.247 5.429 1 9-.039 3.211.295 6.544 1 10-2.132.918-2.799 2.251-2 4-3.081 1.312-4.748 3.645-5 7 1.449 1.117 3.116 1.784 5 2-.116 1.268-.449 2.602-1 4a4.934 4.934 0 0 0 3 .5c-3.474 1.025-7.14 1.692-11 2a51.506 51.506 0 0 0-15 2c-.303-3.088 1.03-4.754 4-5a8.43 8.43 0 0 0-.5-4c-5.079-1.709-5.579-4.209-1.5-7.5-.405-.945-1.072-1.612-2-2 .785-1.543.785-3.21 0-5a20.153 20.153 0 0 1 3-6c-1.232-2.027-.898-3.36 1-4a31.168 31.168 0 0 1-4-4.5c1.333-1 1.333-2 0-3l4-2c-1.54-1.314-3.54-2.647-6-4z"/><path style="opacity:1" fill="#ccb366" d="M341.5 193.5c2.46 1.353 4.46 2.686 6 4l-4 2c1.333 1 1.333 2 0 3a31.168 31.168 0 0 0 4 4.5c-1.898.64-2.232 1.973-1 4a20.153 20.153 0 0 0-3 6c.785 1.79.785 3.457 0 5 .928.388 1.595 1.055 2 2-4.079 3.291-3.579 5.791 1.5 7.5a8.43 8.43 0 0 1 .5 4c-2.97.246-4.303 1.912-4 5a51.506 51.506 0 0 1 15-2 332.311 332.311 0 0 0-19 7c-3.837.062-7.337 1.062-10.5 3-.199-1.902-1.033-3.402-2.5-4.5 2.246-3.167 2.08-6-.5-8.5-.595-1.399-.428-2.732.5-4-1.353-1.024-2.02-2.357-2-4v-34h17z"/><path style="opacity:1" fill="#f2e48d" d="M375.5 193.5h17c4.371 1.305 8.371 3.472 12 6.5-2.415 1.191-3.748 3.191-4 6 .305 5.959.305 11.793 0 17.5a83.63 83.63 0 0 1 3 6.5 4.457 4.457 0 0 0-2 1.5c2.821 1.461 5.487 3.295 8 5.5-.959 1.464-2.292 2.297-4 2.5-5.347-2.61-11.014-3.61-17-3h-19a4.934 4.934 0 0 1-3-.5c.551-1.398.884-2.732 1-4-1.884-.216-3.551-.883-5-2 .252-3.355 1.919-5.688 5-7-.799-1.749-.132-3.082 2-4-.705-3.456-1.039-6.789-1-10 2.247-3.571 1.914-6.571-1-9 2.389-2.607 5.055-4.774 8-6.5z"/><path style="opacity:1" fill="#f8ef9e" d="M382.5 200.5c3.077 1.65 6.244 2.317 9.5 2-.408 7.184-.408 14.184 0 21a22.981 22.981 0 0 0-2 5c-2.618-1.238-5.285-1.238-8 0a11.295 11.295 0 0 1-4-2c-2.262 2.597-4.095 2.43-5.5-.5l2-6-1-1c.928-.388 1.595-1.055 2-2-2.614-3.882-2.614-7.715 0-11.5a3.647 3.647 0 0 0-1-1.5 71.007 71.007 0 0 1 8-3.5z"/><path style="opacity:1" fill="#dec97b" d="M392.5 193.5h30a112.33 112.33 0 0 1-5 2 22.531 22.531 0 0 1 4 3c1.187-1.394 1.854-1.227 2 .5-1.502 2.006-1.169 3.672 1 5a6.293 6.293 0 0 0-1 3c2.016 7.128 3.349 14.128 4 21-1.227 2.27-2.894 4.103-5 5.5a14.972 14.972 0 0 0 3 3.5 15.256 15.256 0 0 0-4.5 1.5c-1.578-3.264-3.744-3.764-6.5-1.5.837 1.011 1.17 2.178 1 3.5-3.309 1.127-6.643 1.127-10 0a6750.442 6750.442 0 0 1-17-4c5.986-.61 11.653.39 17 3 1.708-.203 3.041-1.036 4-2.5-2.513-2.205-5.179-4.039-8-5.5a4.457 4.457 0 0 1 2-1.5 83.63 83.63 0 0 0-3-6.5c.305-5.707.305-11.541 0-17.5.252-2.809 1.585-4.809 4-6-3.629-3.028-7.629-5.195-12-6.5z"/><path style="opacity:1" fill="#a77630" d="M691.5 237.5c-1.29-.558-2.123-1.558-2.5-3-.199 1.902-1.033 3.402-2.5 4.5 1.231 1.183 1.231 2.349 0 3.5-1.756-2.054-2.09-4.221-1-6.5-1.349-.772-2.182-1.939-2.5-3.5l-1 1a32.5 32.5 0 0 1-3-7 26.585 26.585 0 0 1-3.5-2 514.27 514.27 0 0 1-5-12 4.934 4.934 0 0 1-3-.5c-.783-2.118-2.116-3.618-4-4.5-.298-2.765-1.298-5.265-3-7.5l2-1a25.513 25.513 0 0 1-4-4.5c1.46-3.451 1.127-4.117-1-2-2.138-1.533-2.805-3.366-2-5.5a15.311 15.311 0 0 1-5-4.5c3.012-4.063 2.512-4.729-1.5-2-2.022-2.469-1.855-4.635.5-6.5-1.753-1.999-3.087-4.165-4-6.5h5a4.934 4.934 0 0 0 .5 3c4.506 1.479 5.339 3.979 2.5 7.5a55.482 55.482 0 0 1 7 5.5c.376 2.889 1.876 4.889 4.5 6a32.445 32.445 0 0 0 4 9l1-1a113.215 113.215 0 0 0 6 12c3.042 2.508 5.376 5.508 7 9a120.25 120.25 0 0 1 8.5 19z"/><path style="opacity:1" fill="#d6bb6b" d="M422.5 193.5h11v31h-3c-.214 1.644.12 3.144 1 4.5-2.948 1.01-3.614 2.843-2 5.5a21.659 21.659 0 0 1-4 6.5c1.914 1.413 3.247 3.247 4 5.5-1.223 1.114-2.556 1.281-4 .5a133.323 133.323 0 0 0-8-4.5c-1.196.346-1.196.846 0 1.5a2.428 2.428 0 0 1-2 .5 87.673 87.673 0 0 1-10-4c3.357 1.127 6.691 1.127 10 0 .17-1.322-.163-2.489-1-3.5 2.756-2.264 4.922-1.764 6.5 1.5a15.256 15.256 0 0 1 4.5-1.5 14.972 14.972 0 0 1-3-3.5c2.106-1.397 3.773-3.23 5-5.5-.651-6.872-1.984-13.872-4-21a6.293 6.293 0 0 1 1-3c-2.169-1.328-2.502-2.994-1-5-.146-1.727-.813-1.894-2-.5a22.531 22.531 0 0 0-4-3 112.33 112.33 0 0 0 5-2z"/><path style="opacity:1" fill="#956623" d="M95.5 177.5c.11.617.444 1.117 1 1.5a60.32 60.32 0 0 0-5.5 7.5c-.617.949-.45 1.782.5 2.5-1.393 1.171-2.227 2.671-2.5 4.5l-1-1c-2.68 2.376-4.013 5.376-4 9-2.264 3.093-4.264 6.093-6 9-.722 4.172-2.222 8.005-4.5 11.5.405.945 1.072 1.612 2 2-.95.718-1.117 1.551-.5 2.5.85-.924 1.85-.924 3 0 2.901-1.407 4.401-3.74 4.5-7h3l-9 16c-2.29-1.533-2.956-1.2-2 1-3.163.824-4.83 2.824-5 6h-3a67.656 67.656 0 0 1-5 12 3.647 3.647 0 0 1-1.5-1c.046-1.813-.12-3.479-.5-5 .346-1.196.846-1.196 1.5 0a14.294 14.294 0 0 1 2.5-6.5c-1.662-3.175-.995-5.675 2-7.5a56.268 56.268 0 0 0 2.5-7l1 1a345.32 345.32 0 0 1 4.5-19c.91-3.492 2.576-6.492 5-9h3a40.972 40.972 0 0 1 3.5-8 246.219 246.219 0 0 1 10.5-15z"/><path style="opacity:1" fill="#020100" d="M369.5 236.5h19a6750.442 6750.442 0 0 0 17 4 87.673 87.673 0 0 0 10 4c11.788 5.586 21.788 13.586 30 24 7.781 10.228 13.447 21.561 17 34 3.826 20.537 1.16 40.204-8 59-5.454 9.206-12.121 17.54-20 25a98.16 98.16 0 0 0-11 8l-12 6a226.33 226.33 0 0 1-25 6h-13c-9.41-1.015-18.744-3.015-28-6a116.223 116.223 0 0 1-24-16l-9-10c-23.954-33.677-24.954-68.01-3-103 8.498-10.505 18.498-19.172 30-26a332.311 332.311 0 0 1 19-7c3.86-.308 7.526-.975 11-2z"/><path style="opacity:1" fill="#4c3f2d" d="m674.5 194.5 10 15v1a456.865 456.865 0 0 1 15 30 351.795 351.795 0 0 0 9 27c.237 1.291-.096 2.291-1 3a115.043 115.043 0 0 0-6-14 101.04 101.04 0 0 0-5.5-17 455.044 455.044 0 0 0-22.5-44c0-.667.333-1 1-1z"/><path style="opacity:1" fill="#d3b46c" d="M378.5 244.5c1.265 1.014 1.931 2.514 2 4.5l-1 4.5a21.127 21.127 0 0 1-1-9z"/><path style="opacity:1" fill="#b89850" d="M324.5 227.5c-.02 1.643.647 2.976 2 4-.928 1.268-1.095 2.601-.5 4 2.58 2.5 2.746 5.333.5 8.5 1.467 1.098 2.301 2.598 2.5 4.5 3.163-1.938 6.663-2.938 10.5-3-11.502 6.828-21.502 15.495-30 26-2.342-.275-2.342-1.108 0-2.5-3.417-4.43-3.75-9.096-1-14a6.547 6.547 0 0 1-3-3c1.073-1.25 1.073-2.584 0-4 2.104-3.274 4.771-6.107 8-8.5a4.457 4.457 0 0 0-1.5-2 21.53 21.53 0 0 0-6 5 2.428 2.428 0 0 1-.5-2 98.73 98.73 0 0 1 19-13z"/><path style="opacity:1" fill="#9d6b2a" d="M663.5 207.5c1.884.882 3.217 2.382 4 4.5a4.934 4.934 0 0 0 3 .5 514.27 514.27 0 0 0 5 12 26.585 26.585 0 0 0 3.5 2 32.5 32.5 0 0 0 3 7l1-1c.318 1.561 1.151 2.728 2.5 3.5-1.09 2.279-.756 4.446 1 6.5 1.231-1.151 1.231-2.317 0-3.5 1.467-1.098 2.301-2.598 2.5-4.5.377 1.442 1.21 2.442 2.5 3-.045 4.205 1.789 7.205 5.5 9 .453 3.908 1.953 7.241 4.5 10-1.753 4.145-.92 7.812 2.5 11a55.175 55.175 0 0 0 5 14c.72 1.612.554 3.112-.5 4.5a76.201 76.201 0 0 0 4 12c-1.333.667-1.333 1.333 0 2a7.293 7.293 0 0 1-3 2c1.206 1.018.873 1.518-1 1.5-4.069-1.641-4.736-3.975-2-7 .098-2.995-.402-5.995-1.5-9-1.352-1.932-3.185-3.266-5.5-4-.017-2.514-.517-5.181-1.5-8-.718.951-1.551 1.117-2.5.5-.97-2.565-2.304-4.732-4-6.5a323.822 323.822 0 0 0-28-62z"/><path style="opacity:1" fill="#c09f56" d="m433.5 224.5 15 12c-.763.768-1.763 1.268-3 1.5 1.894 1.101 2.561 2.434 2 4 1.284.684 2.451.517 3.5-.5 2.268 2.585 3.434 5.585 3.5 9 3.297-.171 3.631.495 1 2-2.667 4-2.667 8 0 12-2.473 1.742-2.473 3.575 0 5.5a28.931 28.931 0 0 0-4 1.5c-1.63-1.764-3.63-2.764-6-3-8.212-10.414-18.212-18.414-30-24a2.428 2.428 0 0 0 2-.5c-1.196-.654-1.196-1.154 0-1.5a133.323 133.323 0 0 1 8 4.5c1.444.781 2.777.614 4-.5-.753-2.253-2.086-4.087-4-5.5a21.659 21.659 0 0 0 4-6.5c-1.614-2.657-.948-4.49 2-5.5-.88-1.356-1.214-2.856-1-4.5h3z"/><path style="opacity:1" fill="#ae8a46" d="M448.5 236.5c4.605 2.936 8.605 6.602 12 11 1.129 3.801 1.129 7.301 0 10.5.753 1.487 1.586 1.654 2.5.5a10.756 10.756 0 0 0 2.5 3c2.253 3.432 3.586 6.932 4 10.5-2.544 1.563-2.544 3.063 0 4.5-2.145 1.182-2.145 2.682 0 4.5l-2 1c.135 2.543.802 5.21 2 8l-2 5c2.249 2.447 2.416 4.947.5 7.5-1.518.443-2.685-.224-3.5-2a31.147 31.147 0 0 1-2 2c-3.553-12.439-9.219-23.772-17-34 2.37.236 4.37 1.236 6 3a28.931 28.931 0 0 1 4-1.5c-2.473-1.925-2.473-3.758 0-5.5-2.667-4-2.667-8 0-12 2.631-1.505 2.297-2.171-1-2-.066-3.415-1.232-6.415-3.5-9-1.049 1.017-2.216 1.184-3.5.5.561-1.566-.106-2.899-2-4 1.237-.232 2.237-.732 3-1.5z"/><path style="opacity:1" fill="#7d511a" d="M73.5 209.5a345.32 345.32 0 0 0-4.5 19l-1-1a56.268 56.268 0 0 1-2.5 7c-2.995 1.825-3.662 4.325-2 7.5a14.294 14.294 0 0 0-2.5 6.5c-.654-1.196-1.154-1.196-1.5 0 .38 1.521.546 3.187.5 5 .414.457.914.791 1.5 1a67.656 67.656 0 0 0 5-12h3c.17-3.176 1.837-5.176 5-6-.956-2.2-.29-2.533 2-1a964.392 964.392 0 0 1-13 33c-.074-2.849-.408-5.849-1-9a15.05 15.05 0 0 0-3 3.5 126.785 126.785 0 0 1-6.5 16.5 159.8 159.8 0 0 1-3.5 17 124.02 124.02 0 0 0-3.5 12 337.61 337.61 0 0 1-4.5 29 53.784 53.784 0 0 0-2 16c-.722-.418-1.222-1.084-1.5-2a98.432 98.432 0 0 1-.5-14 346.042 346.042 0 0 1 13-62c2-5.608 4.166-11.275 6.5-17 1.276-3.597 1.61-7.264 1-11-3.028 5.471-5.695 11.804-8 19a34.084 34.084 0 0 0-1.5 8c-.667 0-1 .333-1 1-.904-.709-1.237-1.709-1-3 6.027-22.376 15.027-43.376 27-63z"/><path style="opacity:1" fill="#522e06" d="M50.5 275.5c.133-3.425-.533-3.758-2-1a34.084 34.084 0 0 1 1.5-8c2.305-7.196 4.972-13.529 8-19 .61 3.736.276 7.403-1 11a408.257 408.257 0 0 0-6.5 17z"/><path style="opacity:1" fill="#865d2a" d="M699.5 240.5c1.249 1.278 2.749 2.278 4.5 3a85.65 85.65 0 0 0 8.5 21.5c.226 4.969 1.726 9.469 4.5 13.5l1-2a232.664 232.664 0 0 1 8.5 31 3663.903 3663.903 0 0 0-5.5-15c-.5 4.718.333 9.384 2.5 14a58.61 58.61 0 0 1-2.5 12c-2.473-17.549-6.64-34.549-12.5-51a351.795 351.795 0 0 1-9-27z"/><path style="opacity:1" fill="#905f21" d="M684.5 210.5a5.576 5.576 0 0 1 3 1c5.761 8.628 11.094 18.128 16 28.5.51 1.826 1.344 1.993 2.5.5a28.931 28.931 0 0 0 1.5 4c-.978 1.301-.645 2.468 1 3.5-.83 1.465-.996 2.965-.5 4.5l3 1a79.664 79.664 0 0 0 7 16c.442-2.805-.058-5.472-1.5-8a4.933 4.933 0 0 1 1-2.5 344.653 344.653 0 0 0-5-8.5 5.576 5.576 0 0 0 1-3c10.571 25.947 17.571 52.947 21 81-1.592 1.102-2.425.435-2.5-2l-1 2c-.5 8.327-.666 16.66-.5 25a480.518 480.518 0 0 1-2-17 955.673 955.673 0 0 1-2-29 232.664 232.664 0 0 0-8.5-31l-1 2c-2.774-4.031-4.274-8.531-4.5-13.5a85.65 85.65 0 0 1-8.5-21.5c-1.751-.722-3.251-1.722-4.5-3a456.865 456.865 0 0 0-15-30z"/><path style="opacity:1" fill="#634112" d="M63.5 268.5c-3.495 12.643-6.995 25.31-10.5 38a1054.015 1054.015 0 0 0-6.5 38c-.652-.949-.986-2.115-1-3.5a324.562 324.562 0 0 1 7-43 9.622 9.622 0 0 0-1.5-4.5c-.232 1.237-.732 2.237-1.5 3a159.8 159.8 0 0 0 3.5-17 126.785 126.785 0 0 0 6.5-16.5 15.05 15.05 0 0 1 3-3.5c.592 3.151.926 6.151 1 9z"/><path style="opacity:1" fill="#483421" d="M46.5 272.5c-.237 1.291.096 2.291 1 3a1178.516 1178.516 0 0 1-8.5 26 132.45 132.45 0 0 1 7.5-29z"/><path style="opacity:1" fill="#936228" d="M701.5 256.5a115.043 115.043 0 0 1 6 14 650.202 650.202 0 0 1 13.5 60 411.763 411.763 0 0 1 4.5 68c-3.467 38.839-11.967 76.506-25.5 113-.716 2.379-1.883 4.379-3.5 6-.427-3.288.24-6.288 2-9-1.309-2.437-.642-3.937 2-4.5l-3-1c1.711-1.133 2.211-2.633 1.5-4.5-1.073.78-2.24.613-3.5-.5 3.146-.11 4.146-1.443 3-4a7.248 7.248 0 0 0 2-2.5c-.941.011-1.608-.489-2-1.5a23.57 23.57 0 0 0 4-6c-.979-1.779-.646-3.445 1-5-2.845-2.824-2.512-5.157 1-7-1.276-2.166-.943-4.166 1-6-1.524-1.194-2.69-2.694-3.5-4.5l-1 8c-1 2.667-2 2.667-3 0a34.251 34.251 0 0 1-1.5 8c-1.119 3.408-2.785 6.408-5 9a454.908 454.908 0 0 0 16-90c1.469-9.625 2.136-19.458 2-29.5l-.5-18.5c-.383-.556-.883-.889-1.5-1a385.788 385.788 0 0 0-16-78c1.696 1.768 3.03 3.935 4 6.5.949.617 1.782.451 2.5-.5.983 2.819 1.483 5.486 1.5 8 2.315.734 4.148 2.068 5.5 4 1.098 3.005 1.598 6.005 1.5 9-2.736 3.025-2.069 5.359 2 7 1.873.018 2.206-.482 1-1.5a7.293 7.293 0 0 0 3-2c-1.333-.667-1.333-1.333 0-2a76.201 76.201 0 0 1-4-12c1.054-1.388 1.22-2.888.5-4.5a55.175 55.175 0 0 1-5-14c-3.42-3.188-4.253-6.855-2.5-11z"/><path style="opacity:1" fill="#d6a940" d="M382.5 320.5c.412-2.473-.588-3.806-3-4a288.37 288.37 0 0 1 27.5-37l1.5 1a24790.336 24790.336 0 0 1-26 40z"/><path style="opacity:1" fill="#a67e3b" d="M309.5 271.5c-21.954 34.99-20.954 69.323 3 103-4-1.156-7-3.656-9-7.5-1-.667-2-.667-3 0 .621 3.459 1.621 7.126 3 11a14.972 14.972 0 0 0-3 3.5c2.22 3.993 3.386 8.326 3.5 13 1.682 3.181 4.182 5.514 7.5 7 1.901 2.296 4.234 4.129 7 5.5l-1 1c.881.708 1.547 1.542 2 2.5-8.965-4.664-16.632-10.998-23-19-.086-.996.248-1.829 1-2.5a137.243 137.243 0 0 1-11.5-15.5c-.837-2.338-1.67-4.672-2.5-7 1.19-1.859 1.19-3.692 0-5.5a9.258 9.258 0 0 1 2-2.5c-1.682-2.559-2.682-5.393-3-8.5 3.711-9.071 3.378-18.738-1-29a72.276 72.276 0 0 0 3-8 42.094 42.094 0 0 0-2-10.5 7.248 7.248 0 0 1 2-2.5 68.077 68.077 0 0 1-1-6.5 167.912 167.912 0 0 1 2-7.5c-3.22-3.252-3.22-6.752 0-10.5-1.011-3.634-1.011-7.301 0-11a114.907 114.907 0 0 1 20-24 2.428 2.428 0 0 0 .5 2 21.53 21.53 0 0 1 6-5 4.457 4.457 0 0 1 1.5 2c-3.229 2.393-5.896 5.226-8 8.5 1.073 1.416 1.073 2.75 0 4a6.547 6.547 0 0 0 3 3c-2.75 4.904-2.417 9.57 1 14-2.342 1.392-2.342 2.225 0 2.5z"/><path style="opacity:1" fill="#946629" d="M285.5 264.5c-1.011 3.699-1.011 7.366 0 11-3.22 3.748-3.22 7.248 0 10.5a167.912 167.912 0 0 0-2 7.5c.227 2.171.56 4.338 1 6.5a7.248 7.248 0 0 0-2 2.5 42.094 42.094 0 0 1 2 10.5 72.276 72.276 0 0 1-3 8c4.378 10.262 4.711 19.929 1 29 .318 3.107 1.318 5.941 3 8.5a9.258 9.258 0 0 0-2 2.5c1.19 1.808 1.19 3.641 0 5.5.83 2.328 1.663 4.662 2.5 7a137.243 137.243 0 0 0 11.5 15.5c-.752.671-1.086 1.504-1 2.5-24.422-28.355-32.589-61.022-24.5-98 2.925-10.51 7.425-20.177 13.5-29z"/><path style="opacity:1" fill="#b47b18" d="M354.5 304.5c-1.915-.284-3.581.049-5 1-2.901-1.036-5.401-2.703-7.5-5-.749-1.135-.583-2.135.5-3 4.424 1.869 8.424 4.202 12 7z"/><path style="opacity:1" fill="#d2a93d" d="M354.5 304.5c4.82 1.574 9.153 3.907 13 7-1.609 1.165-1.943 2.499-1 4a215.04 215.04 0 0 1-17-10c1.419-.951 3.085-1.284 5-1z"/><path style="opacity:1" fill="#8f5c1c" d="M487.5 303.5c2.948-.277 5.781.056 8.5 1 .5 12.662.667 25.329.5 38h-10c3.052-12.068 3.052-24.234 0-36.5.243-.902.577-1.735 1-2.5z"/><path style="opacity:1" fill="#aa8c3f" d="M446.5 320.5a21.127 21.127 0 0 1 9 1 3.647 3.647 0 0 1-1 1.5 32.462 32.462 0 0 1-8 .5v-3z"/><path style="opacity:1" fill="#8c815f" d="M305.5 320.5h3v3c-3.067.379-4.067-.621-3-3z"/><path style="opacity:1" fill="#6b4c27" d="M708.5 267.5c5.86 16.451 10.027 33.451 12.5 51a58.61 58.61 0 0 0 2.5-12c-2.167-4.616-3-9.282-2.5-14a3663.903 3663.903 0 0 1 5.5 15 955.673 955.673 0 0 0 2 29 498.402 498.402 0 0 1-3-8l-1 .5a785.328 785.328 0 0 1 2 60.5c.31 3.213-.023 6.213-1 9a411.763 411.763 0 0 0-4.5-68 650.202 650.202 0 0 0-13.5-60c.904-.709 1.237-1.709 1-3z"/><path style="opacity:1" fill="#e7d667" d="m367.5 311.5 12 5c2.412.194 3.412 1.527 3 4-.641 17.795-1.307 35.461-2 53 .167-15.337 0-30.67-.5-46a81.316 81.316 0 0 0-2.5-3 70.83 70.83 0 0 0-11-9c-.943-1.501-.609-2.835 1-4z"/><path style="opacity:1" fill="#492907" d="M46.5 344.5a444.071 444.071 0 0 1-1 27 505.828 505.828 0 0 1-1.5-32c-.417-1.256-1.25-1.923-2.5-2a337.61 337.61 0 0 0 4.5-29 124.02 124.02 0 0 1 3.5-12c.768-.763 1.268-1.763 1.5-3a9.622 9.622 0 0 1 1.5 4.5 324.562 324.562 0 0 0-7 43c.014 1.385.348 2.551 1 3.5z"/><path style="opacity:1" fill="#a57e3d" d="M460.5 247.5a29.278 29.278 0 0 1 7 2.5 89.313 89.313 0 0 1 9 12.5 5.576 5.576 0 0 0 1 3 311.535 311.535 0 0 0-4 14 15.645 15.645 0 0 1 2.5 4 186.128 186.128 0 0 0 7.5 27.5c-.928.388-1.595 1.055-2 2 .913 3.174.58 6.674-1 10.5a4.457 4.457 0 0 0 2 1.5c-.963 3.741-.63 7.741 1 12a15.265 15.265 0 0 0-3 5.5c-1.843-1.439-3.51-1.272-5 .5 1.017 1.049 1.184 2.216.5 3.5-2.722 2.458-3.222 4.958-1.5 7.5a16.252 16.252 0 0 0-2 4.5c.718 2.236 1.052 4.402 1 6.5-.335 2.836-1.502 5.67-3.5 8.5a26.67 26.67 0 0 1-1.5 6.5c.457.414.791.914 1 1.5l-3 4c1.13 1.122 1.797 2.456 2 4-.477 1.964-1.644 3.298-3.5 4-1.3-1.207-2.8-1.874-4.5-2 2.802-3.125 2.469-5.959-1-8.5 1.537-3.356 1.203-6.523-1-9.5 2.665-3.175 3.665-6.675 3-10.5l2-3a168.028 168.028 0 0 0-2-6.5c-2.68 2.484-5.013 5.15-7 8 9.16-18.796 11.826-38.463 8-59a31.147 31.147 0 0 0 2-2c.815 1.776 1.982 2.443 3.5 2 1.916-2.553 1.749-5.053-.5-7.5l2-5c-1.198-2.79-1.865-5.457-2-8l2-1c-2.145-1.818-2.145-3.318 0-4.5-2.544-1.437-2.544-2.937 0-4.5-.414-3.568-1.747-7.068-4-10.5a10.756 10.756 0 0 1-2.5-3c-.914 1.154-1.747.987-2.5-.5 1.129-3.199 1.129-6.699 0-10.5z"/><path style="opacity:1" fill="#9c6f2e" d="M476.5 262.5c4.117 2.504 4.784 5.67 2 9.5 4.733 10.03 7.733 20.53 9 31.5a11.123 11.123 0 0 0-1 2.5c3.052 12.266 3.052 24.432 0 36.5a205.71 205.71 0 0 1-10 26c.745 2.247 2.078 4.081 4 5.5a284.164 284.164 0 0 1-12 15.5c-.203-1.544-.87-2.878-2-4l3-4a3.647 3.647 0 0 0-1-1.5 26.67 26.67 0 0 0 1.5-6.5c1.998-2.83 3.165-5.664 3.5-8.5.052-2.098-.282-4.264-1-6.5a16.252 16.252 0 0 1 2-4.5c-1.722-2.542-1.222-5.042 1.5-7.5.684-1.284.517-2.451-.5-3.5 1.49-1.772 3.157-1.939 5-.5a15.265 15.265 0 0 1 3-5.5c-1.63-4.259-1.963-8.259-1-12a4.457 4.457 0 0 1-2-1.5c1.58-3.826 1.913-7.326 1-10.5.405-.945 1.072-1.612 2-2a186.128 186.128 0 0 1-7.5-27.5 15.645 15.645 0 0 0-2.5-4 311.535 311.535 0 0 1 4-14 5.576 5.576 0 0 1-1-3z"/><path style="opacity:1" fill="#3a1e03" d="M41.5 337.5c1.25.077 2.083.744 2.5 2 .17 10.841.67 21.508 1.5 32v6c-.817 2.469-1.317 5.135-1.5 8a679.045 679.045 0 0 0-2-30 123.757 123.757 0 0 0-2 21c-.278.916-.778 1.582-1.5 2 .191-8.34.524-16.674 1-25a53.784 53.784 0 0 1 2-16z"/><path style="opacity:1" fill="#f4ea8c" d="M377.5 324.5a81.316 81.316 0 0 1 2.5 3c.5 15.33.667 30.663.5 46h-3v-49z"/><path style="opacity:1" fill="#75491a" d="M707.5 347.5c.617.111 1.117.444 1.5 1l.5 18.5c.136 10.042-.531 19.875-2 29.5v-49z"/><path style="opacity:1" fill="#61380e" d="M37.5 337.5c-.166 4.679 0 9.345.5 14 .278.916.778 1.582 1.5 2a732.392 732.392 0 0 0-1 25 16.868 16.868 0 0 1-1 8 27.089 27.089 0 0 1-3-11c.052-12.887 1.052-25.554 3-38z"/><path style="opacity:1" fill="#312a19" d="M728.5 336.5a480.518 480.518 0 0 0 2 17v7c.326 8.184-.008 16.184-1 24 .473-10.165-.027-20.165-1.5-30a604.989 604.989 0 0 1-1.5 35 785.328 785.328 0 0 0-2-60.5l1-.5a498.402 498.402 0 0 0 3 8z"/><path style="opacity:1" fill="#b48e47" d="m312.5 374.5 9 10c-2.458.539-4.624-.461-6.5-3-1.628.597-3.295.263-5-1a92.348 92.348 0 0 0 3.5 7.5c-.259 1.261-.926 2.261-2 3 .293 1.813.96 3.813 2 6a31.505 31.505 0 0 1-2 4.5c-3.318-1.486-5.818-3.819-7.5-7-.114-4.674-1.28-9.007-3.5-13a14.972 14.972 0 0 1 3-3.5c-1.379-3.874-2.379-7.541-3-11 1-.667 2-.667 3 0 2 3.844 5 6.344 9 7.5z"/><path style="opacity:1" fill="#231203" d="M45.5 377.5a82.754 82.754 0 0 1-2 18c-1.434-1.72-2.267-3.72-2.5-6-.741 1.141-1.575 1.141-2.5 0-4.85-3.767-6.183-8.433-4-14a27.089 27.089 0 0 0 3 11 16.868 16.868 0 0 0 1-8c.722-.418 1.222-1.084 1.5-2 .074-7.106.74-14.106 2-21a679.045 679.045 0 0 1 2 30c.183-2.865.683-5.531 1.5-8z"/><path style="opacity:1" fill="#b8954e" d="M460.5 391.5a96.436 96.436 0 0 1-18 15c-1.295-1.872-1.128-3.538.5-5l1 2c1.675-1.095 2.842-2.595 3.5-4.5-2.385-.055-3.719-1.222-4-3.5.412-3.33 1.578-6.33 3.5-9 1.09-3.079.257-5.412-2.5-7a7.293 7.293 0 0 0-2 3c2.157 3.518 1.323 3.518-2.5 0-1.451 1.964-3.284 3.297-5.5 4 7.879-7.46 14.546-15.794 20-25 1.987-2.85 4.32-5.516 7-8a168.028 168.028 0 0 1 2 6.5l-2 3c.665 3.825-.335 7.325-3 10.5 2.203 2.977 2.537 6.144 1 9.5 3.469 2.541 3.802 5.375 1 8.5z"/><path style="opacity:1" fill="#aa8d34" d="M378.5 390.5c2.45.374 3.45 1.874 3 4.5-1.486 6.062-2.82 5.895-4-.5a12.624 12.624 0 0 1 1-4z"/><path style="opacity:1" fill="#8e5515" d="M734.5 328.5a149.968 149.968 0 0 1 3 28c2.441 34.582-.725 68.582-9.5 102l-1-1c-.21 1.558-.71 2.891-1.5 4-1.136-1.546-1.802-3.379-2-5.5 1.816-7.64 2.816-15.473 3-23.5a219.403 219.403 0 0 0 2.5-6c.244-10.032.91-20.032 2-30 .826-12.174.66-24.174-.5-36v-7c-.166-8.34 0-16.673.5-25l1-2c.075 2.435.908 3.102 2.5 2z"/><path style="opacity:1" fill="#c6a559" d="M442.5 406.5a64.735 64.735 0 0 0-9 6c.086-.996-.248-1.829-1-2.5l2-2a32.367 32.367 0 0 0-3-4.5c-.036-2.781.298-5.614 1-8.5-.84-1.171-1.673-2.338-2.5-3.5a19.209 19.209 0 0 1-6.5 3 98.16 98.16 0 0 1 11-8c2.216-.703 4.049-2.036 5.5-4 3.823 3.518 4.657 3.518 2.5 0a7.293 7.293 0 0 1 2-3c2.757 1.588 3.59 3.921 2.5 7-1.922 2.67-3.088 5.67-3.5 9 .281 2.278 1.615 3.445 4 3.5-.658 1.905-1.825 3.405-3.5 4.5l-1-2c-1.628 1.462-1.795 3.128-.5 5z"/><path style="opacity:1" fill="#c1a55c" d="M321.5 384.5a116.223 116.223 0 0 0 24 16c-3.551.93-7.051.597-10.5-1-.169 2.171.664 4.004 2.5 5.5a174.471 174.471 0 0 0-6 16c1.73 2.657 2.73 5.657 3 9-1.206 2.017-.873 3.851 1 5.5a4.933 4.933 0 0 1-1 2.5 26.035 26.035 0 0 1 4.5 7.5h3c1.039.744 1.539 1.744 1.5 3 1.165 1.29 6.498 1.624 16 1h74a2971.316 2971.316 0 0 1-109 1c.167-12.005 0-24.005-.5-36-1.397-1.57-2.897-2.904-4.5-4-.453-.958-1.119-1.792-2-2.5l1-1c-2.766-1.371-5.099-3.204-7-5.5a31.505 31.505 0 0 0 2-4.5c-1.04-2.187-1.707-4.187-2-6 1.074-.739 1.741-1.739 2-3a92.348 92.348 0 0 1-3.5-7.5c1.705 1.263 3.372 1.597 5 1 1.876 2.539 4.042 3.539 6.5 3z"/><path style="opacity:1" fill="#d6c175" d="M433.5 448.5v1h-18c-1.068-.934-2.401-1.268-4-1 1.889-3.32 3.222-6.987 4-11-.435-3.881-1.435-7.547-3-11a162.556 162.556 0 0 1 4-12.5c-2.307-2.31-2.64-4.976-1-8l-1-1.5c-2.688.631-5.188.631-7.5 0l-1.5 3a58.53 58.53 0 0 1-3-2c-5.356 1.487-10.689 1.82-16 1a226.33 226.33 0 0 0 25-6 92.63 92.63 0 0 1 13-1c.216 2.932-.451 5.598-2 8 .616 2.221 1.783 2.888 3.5 2a9.454 9.454 0 0 0 2.5 1.5 7.293 7.293 0 0 0-3 2c.983 5.962 1.316 11.795 1 17.5a55.582 55.582 0 0 0-1.5 9c-2.775.636-4.941 2.136-6.5 4.5.845 1.558.179 2.558-2 3 5.481 1.449 11.148 1.949 17 1.5z"/><path style="opacity:1" fill="#d3b86b" d="M433.5 412.5v36c-5.852.449-11.519-.051-17-1.5 2.179-.442 2.845-1.442 2-3 1.559-2.364 3.725-3.864 6.5-4.5a55.582 55.582 0 0 1 1.5-9c.316-5.705-.017-11.538-1-17.5a7.293 7.293 0 0 1 3-2 9.454 9.454 0 0 1-2.5-1.5c-1.717.888-2.884.221-3.5-2 1.549-2.402 2.216-5.068 2-8a92.63 92.63 0 0 0-13 1l12-6a19.209 19.209 0 0 0 6.5-3c.827 1.162 1.66 2.329 2.5 3.5-.702 2.886-1.036 5.719-1 8.5a32.367 32.367 0 0 1 3 4.5l-2 2c.752.671 1.086 1.504 1 2.5z"/><path style="opacity:1" fill="#d5c076" d="M345.5 400.5c9.256 2.985 18.59 4.985 28 6-7.799.245-14.132 1.245-19 3-.111.617-.444 1.117-1 1.5 1.941 1.816 2.608 3.816 2 6-2.069.324-2.402 1.158-1 2.5-.825.886-1.825 1.219-3 1 .239 1.967-.094 3.801-1 5.5l2 2c-1.333 1-1.333 2 0 3a18.08 18.08 0 0 0-2 3.5c.607 2.7.607 5.2 0 7.5a19.953 19.953 0 0 0 3 4.5c2.338-1.511 3.004-1.177 2 1a36.875 36.875 0 0 1-12 1c.039-1.256-.461-2.256-1.5-3h-3a26.035 26.035 0 0 0-4.5-7.5 4.933 4.933 0 0 0 1-2.5c-1.873-1.649-2.206-3.483-1-5.5-.27-3.343-1.27-6.343-3-9a174.471 174.471 0 0 1 6-16c-1.836-1.496-2.669-3.329-2.5-5.5 3.449 1.597 6.949 1.93 10.5 1z"/><path style="opacity:1" fill="#efdf8e" d="M405.5 407.5c-1.109.79-2.442 1.29-4 1.5-.708 2.768-2.208 3.601-4.5 2.5l-2.5 5c.346 1.196.846 1.196 1.5 0 1.487.753 1.654 1.586.5 2.5a7.293 7.293 0 0 0 3 2l-2 1c2.338 5.039 2.505 10.205.5 15.5-3.011.515-4.844 2.182-5.5 5-1.184-1.188-1.184-2.355 0-3.5-2.221-1.669-2.555-3.669-1-6-2.922-3.432-3.255-6.932-1-10.5-1.402-1.342-1.069-2.176 1-2.5l-3-1c1.076-1.726 1.243-3.559.5-5.5-.591 2.645-1.925 3.311-4 2-.945.405-1.612 1.072-2 2-.953-2.092-2.286-2.425-4-1-1.74-5.132-3.907-5.299-6.5-.5 1.914 1.76 3.247 3.927 4 6.5-.484 5.435-1.317 11.102-2.5 17-1.113 1.211-2.28 1.211-3.5 0-1 .333-1.667 1-2 2a30.231 30.231 0 0 1 5 6.5 60.931 60.931 0 0 1-11 .5c-.421-2.41-1.754-4.243-4-5.5a32.367 32.367 0 0 1 3-4.5c2.557 1.32 4.224.487 5-2.5-.116-1.268-.449-2.602-1-4 2.069-.324 2.402-1.158 1-2.5a28.043 28.043 0 0 0 1.5-5 9.454 9.454 0 0 1 2.5-1.5c-1.791-2.106-2.458-4.606-2-7.5-1.644-.214-3.144.12-4.5 1a34.35 34.35 0 0 0-9.5-7c4.868-1.755 11.201-2.755 19-3h13c5.311.82 10.644.487 16-1a58.53 58.53 0 0 0 3 2z"/><path style="opacity:1" fill="#f7ec9b" d="M392.5 442.5c-2.901 2.376-2.568 4.209 1 5.5 5.991.499 11.991.666 18 .5 1.599-.268 2.932.066 4 1h-56c.709-.904 1.709-1.237 3-1a60.931 60.931 0 0 0 11-.5 30.231 30.231 0 0 0-5-6.5c.333-1 1-1.667 2-2 1.22 1.211 2.387 1.211 3.5 0 1.183-5.898 2.016-11.565 2.5-17-.753-2.573-2.086-4.74-4-6.5 2.593-4.799 4.76-4.632 6.5.5 1.714-1.425 3.047-1.092 4 1 .388-.928 1.055-1.595 2-2 2.075 1.311 3.409.645 4-2 .743 1.941.576 3.774-.5 5.5l3 1c-2.069.324-2.402 1.158-1 2.5-2.255 3.568-1.922 7.068 1 10.5-1.555 2.331-1.221 4.331 1 6-1.184 1.145-1.184 2.312 0 3.5z"/><path style="opacity:1" fill="#e4d285" d="M411.5 448.5a162.597 162.597 0 0 1-18-.5c-3.568-1.291-3.901-3.124-1-5.5.656-2.818 2.489-4.485 5.5-5 2.005-5.295 1.838-10.461-.5-15.5l2-1a7.293 7.293 0 0 1-3-2c1.154-.914.987-1.747-.5-2.5-.654 1.196-1.154 1.196-1.5 0l2.5-5c2.292 1.101 3.792.268 4.5-2.5 1.558-.21 2.891-.71 4-1.5l1.5-3c2.312.631 4.812.631 7.5 0l1 1.5c-1.64 3.024-1.307 5.69 1 8a162.556 162.556 0 0 0-4 12.5c1.565 3.453 2.565 7.119 3 11-.778 4.013-2.111 7.68-4 11z"/><path style="opacity:1" fill="#704619" d="M730.5 360.5c1.16 11.826 1.326 23.826.5 36a355.344 355.344 0 0 0-2 30 219.403 219.403 0 0 1-2.5 6 870.594 870.594 0 0 0 3-48c.992-7.816 1.326-15.816 1-24z"/><path style="opacity:1" fill="#e3d187" d="M354.5 409.5a34.35 34.35 0 0 1 9.5 7c1.356-.88 2.856-1.214 4.5-1-.458 2.894.209 5.394 2 7.5a9.454 9.454 0 0 0-2.5 1.5 28.043 28.043 0 0 1-1.5 5c1.402 1.342 1.069 2.176-1 2.5.551 1.398.884 2.732 1 4-.776 2.987-2.443 3.82-5 2.5a32.367 32.367 0 0 0-3 4.5c2.246 1.257 3.579 3.09 4 5.5-1.291-.237-2.291.096-3 1-9.502.624-14.835.29-16-1a36.875 36.875 0 0 0 12-1c1.004-2.177.338-2.511-2-1a19.953 19.953 0 0 1-3-4.5c.607-2.3.607-4.8 0-7.5a18.08 18.08 0 0 1 2-3.5c-1.333-1-1.333-2 0-3l-2-2c.906-1.699 1.239-3.533 1-5.5 1.175.219 2.175-.114 3-1-1.402-1.342-1.069-2.176 1-2.5.608-2.184-.059-4.184-2-6 .556-.383.889-.883 1-1.5z"/><path style="opacity:1" fill="#73450f" d="M737.5 356.5c3.278 40.037.111 79.704-9.5 119a194.271 194.271 0 0 1-7.5 23c.728-12.573 2.394-24.907 5-37 .79-1.109 1.29-2.442 1.5-4l1 1c8.775-33.418 11.941-67.418 9.5-102z"/><path style="opacity:1" fill="#33280a" d="M232.5 498.5c7.843-1.32 15.843-1.32 24 0-.457.798-1.124 1.131-2 1-7.148-.992-14.481-1.325-22-1z"/><path style="opacity:1" fill="#3e3411" d="M284.5 499.5c-7-1.333-14-1.333-21 0-.876.131-1.543-.202-2-1a104.718 104.718 0 0 1 25-.5c-.544.717-1.211 1.217-2 1.5z"/><path style="opacity:1" fill="#483808" d="M316.5 497.5a43.117 43.117 0 0 1 13 1c-.124.607-.457.94-1 1l-12-2z"/><path style="opacity:1" fill="#352306" d="M560.5 499.5a45.636 45.636 0 0 0-19 0c-.876.131-1.543-.202-2-1a96.54 96.54 0 0 1 24-.5c-.744 1.039-1.744 1.539-3 1.5z"/><path style="opacity:1" fill="#e6d896" d="M390.5 498.5h42l-1 2h-13c-3.462-.982-7.129-1.315-11-1 .331 22.839-.003 45.506-1 68v-67h-14l-2-2z"/><path style="opacity:1" fill="#d0a332" d="m316.5 497.5 12 2c-4.157 1.412-8.157 3.412-12 6-.838-.342-1.172-1.008-1-2-.085-2.429-1.085-4.429-3-6 1.458-1.282 2.792-1.282 4 0z"/><path style="opacity:1" fill="#854205" d="M592.5 505.5v-8c4.857.187 9.524 1.02 14 2.5-5.044 1.027-9.71 2.861-14 5.5z"/><path style="opacity:1" fill="#9d6210" d="m176.5 498.5-1 2a27.36 27.36 0 0 0-11 4c-1.302-.857-2.635-1.357-4-1.5 1.017 1.049 1.184 2.216.5 3.5-1.202-2.177-1.702-4.511-1.5-7 5.475-.989 11.142-1.322 17-1z"/><path style="opacity:1" fill="#f6d94c" d="M432.5 498.5a57.15 57.15 0 0 1 15 1 21.028 21.028 0 0 0-2 7c-1.242 2.011-2.909 2.011-5 0a68.828 68.828 0 0 0-9-6l1-2z"/><path style="opacity:1" fill="#845019" d="M726.5 432.5c-.184 8.027-1.184 15.86-3 23.5.198 2.121.864 3.954 2 5.5-2.606 12.093-4.272 24.427-5 37-.509 4.66-1.842 8.993-4 13a21.336 21.336 0 0 1 1-7c-.137-1.607-.804-2.941-2-4a61.766 61.766 0 0 1-10 12c9.214-26.194 16.214-52.861 21-80z"/><path style="opacity:1" fill="#a26d20" d="M196.5 569.5c2.261 1.755 4.928 2.922 8 3.5-9 .667-18 .667-27 0a26.813 26.813 0 0 0 7.5-3.5c.5-22.998.667-45.998.5-69 6.032-2.672 9.198-.672 9.5 6 .168 21.171.668 42.171 1.5 63z"/><path style="opacity:1" fill="#b88121" d="M209.5 498.5c6.009-.166 12.009.001 18 .5a39.064 39.064 0 0 0-2 4.5c-2.127.898-3.294 2.564-3.5 5-.77-1.098-1.603-1.098-2.5 0-1.988-4.84-5.655-7.507-11-8l1-2z"/><path style="opacity:1" fill="#8b6626" d="M176.5 498.5h33l-1 2h-12v69a1970.102 1970.102 0 0 1-1.5-63c-.302-6.672-3.468-8.672-9.5-6h-10l1-2z"/><path style="opacity:1" fill="#834c08" d="M159.5 499.5c-.202 2.489.298 4.823 1.5 7 .684-1.284.517-2.451-.5-3.5 1.365.143 2.698.643 4 1.5a90.935 90.935 0 0 0-8 14c-.62-6.614.38-12.947 3-19z"/><path style="opacity:1" fill="#bf9541" d="M232.5 498.5c7.519-.325 14.852.008 22 1-2.459-.19-4.126.81-5 3-.667 11.328-1 22.828-1 34.5.001 11.853.668 23.353 2 34.5 2.064.187 4.064.687 6 1.5-8.333.667-16.667.667-25 0a36.176 36.176 0 0 0 6.5-3.5 748.936 748.936 0 0 0-.5-67c-1.919-1.112-3.586-2.446-5-4z"/><path style="opacity:1" fill="#f6ef79" d="m390.5 498.5 2 2c-6.405 3.105-10.738 8.105-13 15-.973-2.448-1.306-5.115-1-8 .204-3.018.537-6.018 1-9h11z"/><path style="opacity:1" fill="#9b6b2a" d="M696.5 517.5a27.603 27.603 0 0 1-5 1.5 7.93 7.93 0 0 1 1 3.5 34.822 34.822 0 0 0-3 11c-3.023-.395-4.023.605-3 3-1.515 2.047-2.349 4.381-2.5 7a31.58 31.58 0 0 1-6 5 4.457 4.457 0 0 1-1.5-2c3.871-.641 4.538-2.141 2-4.5 3.454-.293 3.788-1.626 1-4a6.802 6.802 0 0 0 3-1.5c-.835-2.64-1.002-5.307-.5-8a18.924 18.924 0 0 0-3 5c-2.391-1.102-2.891-.436-1.5 2-2.131-.162-3.131 1.171-3 4-5.082.509-6.916 3.175-5.5 8-2.561.734-4.727 2.067-6.5 4l16.5-33a707.494 707.494 0 0 1 12.5-32c2.215-2.592 3.881-5.592 5-9a34.251 34.251 0 0 0 1.5-8c1 2.667 2 2.667 3 0l1-8c.81 1.806 1.976 3.306 3.5 4.5-1.943 1.834-2.276 3.834-1 6-3.512 1.843-3.845 4.176-1 7-1.646 1.555-1.979 3.221-1 5a23.57 23.57 0 0 1-4 6c.392 1.011 1.059 1.511 2 1.5a7.248 7.248 0 0 1-2 2.5c1.146 2.557.146 3.89-3 4 1.26 1.113 2.427 1.28 3.5.5.711 1.867.211 3.367-1.5 4.5l3 1c-2.642.563-3.309 2.063-2 4.5-1.76 2.712-2.427 5.712-2 9z"/><path style="opacity:1" fill="#060300" d="M495.5 519.5a1033.141 1033.141 0 0 1 12 34c-12.58.322-25.08-.011-37.5-1-.667-1.333-.667-2.667 0-4a1059.69 1059.69 0 0 0 17.5-40c1.042-1.291 2.208-1.291 3.5 0 1.038 3.968 2.538 7.635 4.5 11z"/><path style="opacity:1" fill="#91681f" d="M225.5 503.5a56 56 0 0 1-4 14 3.647 3.647 0 0 1-1.5-1 32.462 32.462 0 0 1-.5-8c.897-1.098 1.73-1.098 2.5 0 .206-2.436 1.373-4.102 3.5-5z"/><path style="opacity:1" fill="#927e44" d="M378.5 507.5c-.306 2.885.027 5.552 1 8a16.332 16.332 0 0 1-2 4l-1-2.5c.446-3.35 1.112-6.517 2-9.5z"/><path style="opacity:1" fill="#ceb152" d="M440.5 506.5c2.091 2.011 3.758 2.011 5 0-2.197 14.483-3.864 14.483-5 0z"/><path style="opacity:1" fill="#ecdb79" d="M418.5 500.5a818.961 818.961 0 0 0-.5 70c1.011.837 2.178 1.17 3.5 1v2h-5c-3.812-.824-7.812-1.324-12-1.5.556-.383.889-.883 1-1.5.904-.709 1.237-1.709 1-3a1156.835 1156.835 0 0 0 1-68c3.871-.315 7.538.018 11 1z"/><path style="opacity:1" fill="#c5a048" d="M506.5 519.5c.91 4.335.577 8.669-1 13a37.138 37.138 0 0 1-4.5-2 176.05 176.05 0 0 0-2.5-8c-.641-1.493-1.641-2.493-3-3-1.962-3.365-3.462-7.032-4.5-11-1.292-1.291-2.458-1.291-3.5 0-.934-1.068-1.268-2.401-1-4 2.594-4.566 6.594-7.233 12-8a327.919 327.919 0 0 0 8 23z"/><path style="opacity:1" fill="#79501b" d="M592.5 502.5v3a312.322 312.322 0 0 1-21 21c-.952 1.545-1.285 3.212-1 5-1.542-.801-3.208-1.134-5-1 9.028-9.36 18.028-18.693 27-28z"/><path style="opacity:1" fill="#c1a451" d="M263.5 499.5c7-1.333 14-1.333 21 0a11.105 11.105 0 0 0-4.5 3 256.122 256.122 0 0 0 0 32c.704 2.227 1.871 2.56 3.5 1a117.811 117.811 0 0 0 9.5 5 52.56 52.56 0 0 1 1.5 7 72.667 72.667 0 0 0-7-7.5c-2.514-1.252-5.18-1.752-8-1.5-.166 10.339 0 20.672.5 31 1.53 1.42 3.363 2.42 5.5 3a96.54 96.54 0 0 1-24 .5 20.889 20.889 0 0 0 6.5-3.5 1121.94 1121.94 0 0 0 0-67c-1.129-1.641-2.629-2.641-4.5-3z"/><path style="opacity:1" fill="#a48f4f" d="M315.5 503.5c-.172.992.162 1.658 1 2l-24 23h-2c8-8.667 16.333-17 25-25z"/><path style="opacity:1" fill="#674f1c" d="M249.5 502.5c-.322 23.075.011 46.075 1 69-1.332-11.147-1.999-22.647-2-34.5 0-11.672.333-23.172 1-34.5z"/><path style="opacity:1" fill="#b09147" d="M486.5 504.5c-.268 1.599.066 2.932 1 4a1059.69 1059.69 0 0 1-17.5 40c-.667 1.333-.667 2.667 0 4 12.42.989 24.92 1.322 37.5 1a1033.141 1033.141 0 0 0-12-34c1.359.507 2.359 1.507 3 3a176.05 176.05 0 0 1 2.5 8 37.138 37.138 0 0 0 4.5 2c1.577-4.331 1.91-8.665 1-13a906.949 906.949 0 0 1 18 45c-3.113-2.14-4.446-5.14-4-9-2.324-.162-3.991-1.328-5-3.5l1-1a38.026 38.026 0 0 1-2.5-6.5 38.695 38.695 0 0 0-7.5-11c-.595 2.661.405 4.828 3 6.5-.76 5.324-.76 10.824 0 16.5a463.087 463.087 0 0 0-43 1 39.694 39.694 0 0 0-3 12c-.904-.709-1.237-1.709-1-3h-3c9.019-20.7 18.019-41.367 27-62z"/><path style="opacity:1" fill="#fdea78" d="M408.5 502.5c2.572.781 4.572 2.281 6 4.5a1033.7 1033.7 0 0 0-1 63.5c-1.89.203-3.39-.463-4.5-2-.5-21.997-.667-43.997-.5-66z"/><path style="opacity:1" fill="#e5d567" d="M343.5 539.5c4.992.665 9.992 1.331 15 2 3.341-.336 6.675-.669 10-1 .032 3.619-1.635 5.953-5 7-7.607-2.086-15.273-2.42-23-1 .188-2.706 1.188-5.039 3-7z"/><path style="opacity:1" fill="#af8338" d="M560.5 499.5a30.233 30.233 0 0 0-3.5 3 577.896 577.896 0 0 0-.5 34v3c-.166 10.339 0 20.672.5 31a54.628 54.628 0 0 1 4.5 2 88.739 88.739 0 0 1-23 .5 20.889 20.889 0 0 0 6.5-3.5 1121.94 1121.94 0 0 0 0-67 30.233 30.233 0 0 0-3.5-3 45.636 45.636 0 0 1 19 0z"/><path style="opacity:1" fill="#5b3813" d="M75.5 554.5c-.838.342-1.172 1.008-1 2a591.268 591.268 0 0 1-15-29c.86-1.274 1.526-1.108 2 .5a996.26 996.26 0 0 0 14 26.5z"/><path style="opacity:1" fill="#d8b452" d="M290.5 528.5h2l27 34c-2.888.28-4.388-1.053-4.5-4-.669 2.528-1.502 2.528-2.5 0a3.647 3.647 0 0 1 1-1.5l-5-1a28.597 28.597 0 0 0-6.5-6.5 85.93 85.93 0 0 0 1.5 8 32.255 32.255 0 0 1-9-10 52.56 52.56 0 0 0-1.5-7 117.811 117.811 0 0 1-9.5-5c1.333-3.333 3.667-5.667 7-7z"/><path style="opacity:1" fill="#895a1a" d="M716.5 511.5c-12.177 34.369-29.51 65.702-52 94-2.26.639-4.26 1.806-6 3.5a136.255 136.255 0 0 1-8 8.5c-.397-1.025-1.063-1.192-2-.5a31.447 31.447 0 0 1-5 4.5 8.43 8.43 0 0 1 .5-4c3.796-3.949 6.963-8.283 9.5-13a457.69 457.69 0 0 1 20-30c7.299-6.927 12.299-15.26 15-25a910.047 910.047 0 0 0 17-37 61.766 61.766 0 0 0 10-12c1.196 1.059 1.863 2.393 2 4a21.336 21.336 0 0 0-1 7z"/><path style="opacity:1" fill="#e9c756" d="m319.5 562.5 9 8c-4.215 1.936-8.881 2.603-14 2a189.346 189.346 0 0 1-11-15 85.93 85.93 0 0 1-1.5-8 28.597 28.597 0 0 1 6.5 6.5l5 1a3.647 3.647 0 0 0-1 1.5c.998 2.528 1.831 2.528 2.5 0 .112 2.947 1.612 4.28 4.5 4z"/><path style="opacity:1" fill="#c39a43" d="M524.5 564.5c1.743 3.25 4.077 6.084 7 8.5-8.353.832-16.687.665-25-.5 5.69-1.527 7.524-5.194 5.5-11l-2.5-5c-.76-5.676-.76-11.176 0-16.5-2.595-1.672-3.595-3.839-3-6.5a38.695 38.695 0 0 1 7.5 11 38.026 38.026 0 0 0 2.5 6.5l-1 1c1.009 2.172 2.676 3.338 5 3.5-.446 3.86.887 6.86 4 9z"/><path style="opacity:1" fill="#795b31" d="M688.5 549.5c-2.701 9.74-7.701 18.073-15 25a469.327 469.327 0 0 1 15-25z"/><path style="opacity:1" fill="#9a621a" d="M565.5 530.5c1.792-.134 3.458.199 5 1a1635.705 1635.705 0 0 1 30.5 36l7.5 5.5a48.73 48.73 0 0 1-17-.5 1975.201 1975.201 0 0 1-27-32.5c-2.619-1.696-5.286-1.863-8-.5v-3l9-6z"/><path style="opacity:1" fill="#e5c94d" d="M459.5 566.5h3c-.237 1.291.096 2.291 1 3l3 2c-3.14 1.141-6.473 1.308-10 .5 1.323-.816 1.989-1.983 2-3.5l1-2z"/><path style="opacity:1" fill="#bfa152" d="M328.5 570.5a10.515 10.515 0 0 1 3 2.5c-5.849.818-11.515.652-17-.5 5.119.603 9.785-.064 14-2z"/><path style="opacity:1" fill="#c5b679" d="M405.5 570.5c-.111.617-.444 1.117-1 1.5 4.188.176 8.188.676 12 1.5-6.342.166-12.675 0-19-.5a25.223 25.223 0 0 1 8-2.5z"/><path style="opacity:1" fill="#8c764e" d="M421.5 571.5c6.508 1.242 6.508 1.908 0 2v-2z"/><path style="opacity:1" fill="#b2973d" d="M458.5 568.5c-.011 1.517-.677 2.684-2 3.5 3.527.808 6.86.641 10-.5 1.256-.039 2.256.461 3 1.5a43.233 43.233 0 0 1-16-.5c1.686-1.357 3.352-2.69 5-4z"/><path style="opacity:1" fill="#9f7735" d="M696.5 517.5c-16.696 43.719-41.696 82.052-75 115v-5h3a4.934 4.934 0 0 1 .5-3c5.517-4.812 10.351-10.146 14.5-16-1.43.194-2.93.194-4.5 0a101.553 101.553 0 0 0-11.5 12.5 2.428 2.428 0 0 1-2 .5 789.8 789.8 0 0 0 20.5-26c1.751-1.712 2.418-3.712 2-6a372.075 372.075 0 0 1-22.5 23.5c-2.964 2.81-6.298 4.976-10 6.5-.838-.342-1.172-1.008-1-2a244.582 244.582 0 0 0 22.5-23 774.727 774.727 0 0 0 29.5-43c1.773-1.933 3.939-3.266 6.5-4-1.416-4.825.418-7.491 5.5-8-.131-2.829.869-4.162 3-4-1.391-2.436-.891-3.102 1.5-2a18.924 18.924 0 0 1 3-5c-.502 2.693-.335 5.36.5 8a6.802 6.802 0 0 1-3 1.5c2.788 2.374 2.454 3.707-1 4 2.538 2.359 1.871 3.859-2 4.5a4.457 4.457 0 0 0 1.5 2 31.58 31.58 0 0 0 6-5c.151-2.619.985-4.953 2.5-7-1.023-2.395-.023-3.395 3-3a34.822 34.822 0 0 1 3-11 7.93 7.93 0 0 0-1-3.5 27.603 27.603 0 0 0 5-1.5z"/><path style="opacity:1" fill="#625327" d="M610.5 617.5c-.172.992.162 1.658 1 2a518.809 518.809 0 0 0-22 17.5c-1.555 1.289-3.221 1.956-5 2a778.842 778.842 0 0 1 26-21.5z"/><path style="opacity:1" fill="#8b5e16" d="M75.5 554.5c19.342 32.794 42.675 62.627 70 89.5a372.79 372.79 0 0 0 31 25.5c-.342.838-1.008 1.172-2 1-41.406-30.751-74.74-68.751-100-114-.172-.992.162-1.658 1-2z"/><path style="opacity:1" fill="#643905" d="M650.5 617.5a775.527 775.527 0 0 1-38 38c-1-.333-1.667-1-2-2a373.323 373.323 0 0 0 33-32 31.447 31.447 0 0 0 5-4.5c.937-.692 1.603-.525 2 .5z"/><path style="opacity:1" fill="#ae8a36" d="M621.5 632.5a215.358 215.358 0 0 1-30 26 102.538 102.538 0 0 0 4-8.5c-2.006.15-4.006.65-6 1.5a674.038 674.038 0 0 0 32-30 2.428 2.428 0 0 0 2-.5 101.553 101.553 0 0 1 11.5-12.5c1.57.194 3.07.194 4.5 0-4.149 5.854-8.983 11.188-14.5 16a4.934 4.934 0 0 0-.5 3h-3v5z"/><path style="opacity:1" fill="#a88336" d="M664.5 605.5c-25.221 33.555-55.554 61.555-91 84 .03-.997-.47-1.664-1.5-2a11.068 11.068 0 0 0-3.5 2l-1-1 2-2c-1.521-.38-3.187-.546-5-.5.556-.383.889-.883 1-1.5 1.91-1.784 4.244-2.784 7-3 .689 1.274 1.523 1.274 2.5 0 1.081 2.267 2.581 2.434 4.5.5a425.255 425.255 0 0 0 33-26.5 775.527 775.527 0 0 0 38-38 136.255 136.255 0 0 0 8-8.5c1.74-1.694 3.74-2.861 6-3.5z"/><path style="opacity:1" fill="#ae9050" d="M653.5 604.5c-2.537 4.717-5.704 9.051-9.5 13a8.43 8.43 0 0 0-.5 4 373.323 373.323 0 0 1-33 32 614.862 614.862 0 0 1-38 28c-2.756.216-5.09 1.216-7 3h-2c23.829-15.363 45.996-33.029 66.5-53a934.452 934.452 0 0 1 23.5-27z"/><path style="opacity:1" fill="#896518" d="M610.5 653.5c.333 1 1 1.667 2 2a425.255 425.255 0 0 1-33 26.5c-1.919 1.934-3.419 1.767-4.5-.5-.977 1.274-1.811 1.274-2.5 0a614.862 614.862 0 0 0 38-28z"/><path style="opacity:1" fill="#5a3c14" d="M176.5 669.5a430.784 430.784 0 0 0 29 19c1.333.667 1.333 1.333 0 2a246.986 246.986 0 0 1-31-20c.992.172 1.658-.162 2-1z"/><path style="opacity:1" fill="#bfa045" d="M591.5 658.5c-17.313 13.666-35.98 25.332-56 35-.854-1.132-.854-2.465 0-4a1480.516 1480.516 0 0 0 54-38c1.994-.85 3.994-1.35 6-1.5a102.538 102.538 0 0 1-4 8.5z"/><path style="opacity:1" fill="#4a2e0d" d="M276.5 709.5c-.342.838-1.008 1.172-2 1-28.531-8.932-54.865-22.099-79-39.5l-20-15c1.408-.315 2.741.018 4 1 29.19 23.262 61.523 40.762 97 52.5z"/><path style="opacity:1" fill="#bf9f42" d="M563.5 684.5h2c-.111.617-.444 1.117-1 1.5 1.813-.046 3.479.12 5 .5l-2 2 1 1a11.068 11.068 0 0 1 3.5-2c1.03.336 1.53 1.003 1.5 2a237.172 237.172 0 0 1-23 13c-.381-1.431-1.381-2.264-3-2.5 1.771-.535 2.104-1.369 1-2.5a11.988 11.988 0 0 1-6 1 1009.83 1009.83 0 0 0 16-9 24.551 24.551 0 0 0 5-5z"/><path style="opacity:1" fill="#3d301c" d="M498.5 688.5c2.235.748 1.902 1.581-1 2.5-4.51 2.174-9.177 3.507-14 4a360.846 360.846 0 0 0 15-6.5z"/><path style="opacity:1" fill="#b9a164" d="M563.5 684.5a24.551 24.551 0 0 1-5 5 1009.83 1009.83 0 0 1-16 9 36.443 36.443 0 0 1-13 5 15532.34 15532.34 0 0 1 34-19z"/><path style="opacity:1" fill="#7c744b" d="M535.5 689.5c-.854 1.535-.854 2.868 0 4a165.48 165.48 0 0 1-21 10.5c-2.589 1.314-5.256 1.981-8 2a307.572 307.572 0 0 0 29-16.5z"/><path style="opacity:1" fill="#b5a06e" d="M529.5 703.5c-1.249 1.636-2.916 2.803-5 3.5a35.66 35.66 0 0 1-12 3.5c5.314-2.891 10.981-5.224 17-7z"/><path style="opacity:1" fill="#daba4e" d="M550.5 702.5c-26.112 14.595-53.779 25.261-83 32-4.454.224-8.788.224-13 0-3.976 2.872-8.309 3.539-13 2a71.254 71.254 0 0 0 4-2h1a313.605 313.605 0 0 1 19-4.5c2.606-.792 4.606-2.292 6-4.5h2c9.928-1.811 19.261-5.144 28-10a140.721 140.721 0 0 1 9-2.5c.881-.708 1.547-1.542 2-2.5a35.66 35.66 0 0 0 12-3.5c2.084-.697 3.751-1.864 5-3.5a36.443 36.443 0 0 0 13-5 11.988 11.988 0 0 0 6-1c1.104 1.131.771 1.965-1 2.5 1.619.236 2.619 1.069 3 2.5z"/><path style="opacity:1" fill="#a59262" d="M512.5 710.5c-.453.958-1.119 1.792-2 2.5a140.721 140.721 0 0 0-9 2.5c3.209-2.434 6.876-4.101 11-5z"/><path style="opacity:1" fill="#3d2c13" d="M261.5 716.5c-.838.342-1.172 1.008-1 2a78.796 78.796 0 0 1-15-7.5c2.053-.325 4.053.009 6 1 3.315 1.83 6.649 3.33 10 4.5z"/><path style="opacity:1" fill="#342512" d="M276.5 709.5c10.968 3.165 21.968 6.332 33 9.5-12.137-1.106-23.804-3.939-35-8.5.992.172 1.658-.162 2-1z"/><path style="opacity:1" fill="#b09c59" d="M501.5 715.5c-8.739 4.856-18.072 8.189-28 10 1.051-.722 1.718-1.722 2-3a373.212 373.212 0 0 1 26-7z"/><path style="opacity:1" fill="#5d421e" d="M261.5 716.5a1005.13 1005.13 0 0 0 50 15.5 100.88 100.88 0 0 1-24-4 229.596 229.596 0 0 1-27-9.5c-.172-.992.162-1.658 1-2z"/><path style="opacity:1" fill="#988742" d="M471.5 725.5c-1.394 2.208-3.394 3.708-6 4.5a313.605 313.605 0 0 0-19 4.5c.111-.617.444-1.117 1-1.5a508.244 508.244 0 0 0 24-7.5z"/><path style="opacity:1" fill="#262219" d="M465.5 724.5c-1.43 1.037-3.097 1.704-5 2a658.211 658.211 0 0 1-31 4 1633.081 1633.081 0 0 1-76 7 403.12 403.12 0 0 0-20-1.5 85.308 85.308 0 0 1-12-3 420.248 420.248 0 0 0 45 2c2.454-2.487 5.454-3.821 9-4a752.088 752.088 0 0 0 90-6.5z"/><path style="opacity:1" fill="#7a6e44" d="M475.5 722.5c-.282 1.278-.949 2.278-2 3h-2a508.244 508.244 0 0 1-24 7.5c-.556.383-.889.883-1 1.5h-1a1345.472 1345.472 0 0 1-50 8.5l-1 1c4.989.499 9.989.666 15 .5-8.484.993-17.151 1.326-26 1v-3h1c9.07-.558 18.07-1.724 27-3.5l-4-1 16-1a356.635 356.635 0 0 0 37-10.5c1.903-.296 3.57-.963 5-2a44.327 44.327 0 0 1 10-2z"/><path style="opacity:1" fill="#585037" d="M460.5 726.5a356.635 356.635 0 0 1-37 10.5l-16 1 4 1a201.784 201.784 0 0 1-27 3.5c3.077-1.356 6.41-2.189 10-2.5l-2-1a1463.792 1463.792 0 0 1 24-3.5c1.41-.368 2.41-1.201 3-2.5a135.21 135.21 0 0 0 10-2.5 658.211 658.211 0 0 0 31-4z"/><path style="opacity:1" fill="#453d2b" d="M429.5 730.5a135.21 135.21 0 0 1-10 2.5c-.59 1.299-1.59 2.132-3 2.5a1463.792 1463.792 0 0 0-24 3.5l2 1c-3.59.311-6.923 1.144-10 2.5h-1c-.077-1.25-.744-2.083-2-2.5a397.133 397.133 0 0 1-28-2.5 1633.081 1633.081 0 0 0 76-7z"/><path style="opacity:1" fill="#d3ba63" d="M445.5 734.5a71.254 71.254 0 0 1-4 2c4.691 1.539 9.024.872 13-2 4.212.224 8.546.224 13 0-10.609 3.497-21.609 5.83-33 7-5.907.363-11.573 1.363-17 3h-8a112.97 112.97 0 0 1-15-.5l1-1a1345.472 1345.472 0 0 0 50-8.5z"/><path style="opacity:1" fill="#362d1a" d="M434.5 741.5c-5.344 2.133-11.011 3.133-17 3 5.427-1.637 11.093-2.637 17-3z"/></svg>